<?xml version="1.0" encoding="UTF-8"?>
<svg version="1.1" xmlns="http://www.w3.org/2000/svg" width="64" height="64">
<path d="M0 0 C2.25239463 0.0591963 4.48075667 0.00047887 6.73242188 -0.06982422 C13.67579285 -0.10602352 19.00234768 0.42638326 24.34033203 5.17514038 C27.56624526 8.40031704 29.94087407 10.87859239 30.84033203 15.43334961 C30.05365459 19.4189442 28.03000671 21.49901775 25.20898438 24.23486328 C24.69050934 24.756707 24.1720343 25.27855072 23.6378479 25.81620789 C22.54040641 26.9133511 21.43549528 28.00306689 20.32373047 29.08569336 C18.6300457 30.73974698 16.96762316 32.42109011 15.30664062 34.10791016 C14.23416768 35.17282229 13.16000194 36.23603287 12.08398438 37.29736328 C11.34297989 38.04884392 11.34297989 38.04884392 10.58700562 38.81550598 C7.30107002 41.9714642 4.84996076 43.43486454 0.24804688 43.43408203 C-1.75390625 42.3190918 -1.75390625 42.3190918 -3.53320312 40.56298828 C-4.20996094 39.91346191 -4.88671875 39.26393555 -5.58398438 38.59472656 C-6.29941406 37.88171387 -7.01484375 37.16870117 -7.75195312 36.43408203 C-9.32482176 34.96397855 -10.89773983 33.49392798 -12.47070312 32.02392578 C-14.06713739 30.47590796 -15.66086569 28.92509493 -17.25195312 27.37158203 C-18.074375 26.59492187 -18.89679687 25.81826172 -19.74414062 25.01806641 C-20.52015625 24.256875 -21.29617187 23.49568359 -22.09570312 22.71142578 C-22.79888672 22.03329834 -23.50207031 21.3551709 -24.2265625 20.65649414 C-26.30009748 17.63546519 -26.34069817 16.03559915 -25.75195312 12.43408203 C-19.3502052 2.01395831 -11.63322736 -0.36322085 0 0 Z " fill="#3EA8C4" transform="translate(29.751953125,11.56591796875)"/>
<path d="M0 0 C8.82692308 7.44230769 8.82692308 7.44230769 12 11 C12 11.99 12 12.98 12 14 C7.38 14.33 2.76 14.66 -2 15 C-5.96 23.25 -9.92 31.5 -14 40 C-15.32 40 -16.64 40 -18 40 C-18.45890625 39.01 -18.9178125 38.02 -19.390625 37 C-19.68646484 36.36368652 -19.98230469 35.72737305 -20.28710938 35.07177734 C-20.93052983 33.68737928 -21.57245073 32.30228333 -22.21289062 30.91650391 C-23.8748621 27.33784944 -25.60233519 23.83623371 -27.5 20.375 C-29.09957353 16.77595956 -29.36584292 15.60972771 -28 12 C-27.731875 11.154375 -27.46375 10.30875 -27.1875 9.4375 C-25.78048051 6.54940737 -24.53530462 4.98713065 -22 3 C-19.67916057 2.29106191 -17.34616489 1.61999934 -15 1 C-14.22914062 1.78246094 -13.45828125 2.56492187 -12.6640625 3.37109375 C-11.65117427 4.39336057 -10.63814616 5.41548881 -9.625 6.4375 C-9.11710937 6.95376953 -8.60921875 7.47003906 -8.0859375 8.00195312 C-5.31431064 10.857133 -5.31431064 10.857133 -2 13 C-1.34 8.71 -0.68 4.42 0 0 Z " fill="#4BCEF0" transform="translate(48,13)"/>
<path d="M0 0 C1.54412538 0.05026028 3.08840948 0.09587017 4.6328125 0.13671875 C8.38418841 0.2459452 12.12780819 0.41784958 15.875 0.625 C15.73351011 2.2295556 15.58664314 3.83363767 15.4375 5.4375 C15.35628906 6.33082031 15.27507813 7.22414063 15.19140625 8.14453125 C14.875 10.625 14.875 10.625 13.875 13.625 C10.19430113 12.08856148 7.88724796 9.84349055 5.125 7 C4.32578125 6.18273437 3.5265625 5.36546875 2.703125 4.5234375 C2.09984375 3.89695312 1.4965625 3.27046875 0.875 2.625 C-3.96138406 3.74108863 -7.08385564 4.60634496 -10.125 8.625 C-11.27320736 10.92636389 -12.19934113 13.21828695 -13.125 15.625 C-18.075 15.295 -23.025 14.965 -28.125 14.625 C-24.52157605 0.21130422 -12.45296122 -0.70937978 0 0 Z " fill="#3FAAC6" transform="translate(32.125,12.375)"/>
<path d="M0 0 C1.91329102 -0.01836914 1.91329102 -0.01836914 3.86523438 -0.03710938 C5.09435547 -0.03904297 6.32347656 -0.04097656 7.58984375 -0.04296875 C8.71124756 -0.04707764 9.83265137 -0.05118652 10.98803711 -0.05541992 C14.07683614 0.18863273 16.27435709 0.87610154 19.0625 2.1875 C18.7325 3.1775 18.4025 4.1675 18.0625 5.1875 C12.68167008 7.37373317 5.8168152 6.37213259 0.125 6.375 C-1.15052734 6.38724609 -2.42605469 6.39949219 -3.74023438 6.41210938 C-5.58391602 6.41500977 -5.58391602 6.41500977 -7.46484375 6.41796875 C-9.14694946 6.42413208 -9.14694946 6.42413208 -10.86303711 6.43041992 C-13.95183614 6.18636727 -16.14935709 5.49889846 -18.9375 4.1875 C-18.6075 3.1975 -18.2775 2.2075 -17.9375 1.1875 C-12.55667008 -0.99873317 -5.6918152 0.00286741 0 0 Z " fill="#000000" transform="translate(31.9375,57.8125)"/>
<path d="M0 0 C2.87789523 1.79609648 5.0443648 4.00222374 7.421875 6.41796875 C8.31390625 7.31644531 9.2059375 8.21492188 10.125 9.140625 C12.171875 11.35546875 12.171875 11.35546875 12.171875 12.35546875 C3.591875 12.35546875 -4.988125 12.35546875 -13.828125 12.35546875 C-9.81877921 3.00032856 -9.81877921 3.00032856 -4.328125 -0.01953125 C-1.828125 -0.64453125 -1.828125 -0.64453125 0 0 Z " fill="#86E6FE" transform="translate(32.828125,14.64453125)"/>
<path d="M0 0 C0.33872513 1.41538717 0.67074624 2.83237963 1 4.25 C1.185625 5.03890625 1.37125 5.8278125 1.5625 6.640625 C2 9 2 9 2 13 C-2.62 13 -7.24 13 -12 13 C-10.89097308 8.56389232 -9.75721173 7.37826173 -6.5625 4.25 C-5.75941406 3.45078125 -4.95632812 2.6515625 -4.12890625 1.828125 C-2 0 -2 0 0 0 Z " fill="#4BCEF0" transform="translate(16,14)"/>
<path d="M0 0 C0.99 0.33 1.98 0.66 3 1 C1.70700306 3.88437779 0.34058637 5.87219421 -2 8 C-2.99 7.67 -3.98 7.34 -5 7 C-3.70700306 4.11562221 -2.34058637 2.12780579 0 0 Z " fill="#E6F6FA" transform="translate(26,16)"/>
</svg>
